<svg xmlns="http://www.w3.org/2000/svg" version="1.1" xmlns:xlink="http://www.w3.org/1999/xlink" xmlns:svgjs="http://svgjs.dev/svgjs" width="1000" height="750" viewBox="0 0 1000 750"><rect width="1000" height="750" fill="#ee3e38"></rect><g transform="matrix(0.834,0,0,0.834,82.49454545454546,115.4193570850203)"><svg viewBox="0 0 396 247" data-background-color="#ee3e38" preserveAspectRatio="xMidYMid meet" height="623" width="1000" xmlns="http://www.w3.org/2000/svg" xmlns:xlink="http://www.w3.org/1999/xlink"><g id="tight-bounds" transform="matrix(1,0,0,1,0.2400000000000091,-0.09999999999999432)"><svg viewBox="0 0 395.52 247.2" height="247.2" width="395.52"><g><svg></svg></g><g><svg viewBox="0 0 395.52 247.2" height="247.2" width="395.52"><mask id="47817baf-b0f0-49ef-ae2b-0e269a9db606"><rect width="395.52" height="247.2" fill="white"></rect><g transform="matrix(1,0,0,1,127.64741968911918,37.08)" id="clone"><svg viewBox="0 0 140.22516062176163 173.04" height="173.04" width="140.22516062176163"><g><svg viewBox="0 0 140.22516062176163 173.04" height="173.04" width="140.22516062176163"><g><svg viewBox="0 0 140.22516062176163 173.04" height="173.04" width="140.22516062176163"><g><svg viewBox="0 0 140.22516062176163 173.04" height="173.04" width="140.22516062176163"><g id="SvgjsG1171"><svg viewBox="0 0 140.22516062176163 173.04" height="173.04" width="140.22516062176163" id="SvgjsSvg1170"><g><svg viewBox="0 0 140.22516062176163 173.04" height="173.04" width="140.22516062176163"><g transform="matrix(1,0,0,1,0,0)"><svg width="140.22516062176163" viewBox="-1.05 -25.24 23.48 28.731011235955055" height="173.04" data-palette-color="#ffffff"><path d="M1.95-10.92L1.95-10.92Q1.95-15.69 4.66-18.85L4.66-18.85Q7.59-22.24 12.3-22.24L12.3-22.24Q16.32-22.24 18.45-20.57L18.45-20.57Q19.08-20.11 19.08-19.48 19.08-18.85 18.74-18.48 18.39-18.1 17.93-18.1 17.47-18.1 17.24-18.28L17.24-18.28Q15.06-19.54 12.64-19.48L12.64-19.48Q9.48-19.48 7.7-17.13L7.7-17.13Q5.69-14.71 5.69-10.92L5.69-10.92Q5.69-7.41 7.13-5L7.13-5Q8.85-2.24 12.64-2.24L12.64-2.24Q14.71-2.24 17.7-3.68L17.7-3.68Q18.51-4.14 19.08-3.45L19.08-3.45Q19.43-3.1 19.43-2.5 19.43-1.9 18.68-1.29 17.93-0.69 16.9-0.34L16.9-0.34Q14.37 0.52 12.01 0.49 9.66 0.46 7.76-0.4 5.86-1.26 4.6-2.93L4.6-2.93Q1.95-6.09 1.95-10.92Z" opacity="1" transform="matrix(1,0,0,1,0,0)" fill="black" class="wordmark-text-0" id="SvgjsPath1169" stroke-width="5" stroke="black" stroke-linejoin="round"></path></svg></g></svg></g></svg></g></svg></g></svg></g></svg></g></svg></g></mask><g mask="url(#47817baf-b0f0-49ef-ae2b-0e269a9db606)"><g><path d="M127.888 123.922v0c0-11.68 1.68-23.457 5.039-35.331 3.359-11.914 8.516-22.129 15.468-30.645v0c14.844-18.867 35.957-28.301 63.339-28.3v0c15.703 0 30.957 3.477 45.762 10.429v0c3.828 1.562 5.742 4.141 5.742 7.735v0c0 6.758-2.695 10.254-8.086 10.488v0c-1.133 0-2.148-0.117-3.047-0.352v0c-15.469-5.391-27.754-8.086-36.855-8.086-9.101 0-16.68 1.016-22.734 3.047-6.055 1.992-11.328 4.785-15.82 8.379-4.492 3.594-8.301 7.754-11.426 12.48-3.164 4.727-5.644 10-7.441 15.821v0c-3.828 10.781-5.742 22.226-5.742 34.335v0c0 19.765 4.394 36.386 13.183 49.863v0c10.312 15.937 26.25 23.906 47.812 23.906v0c14.805 0 28.945-3.926 42.422-11.777v0c1.797-0.469 3.535-0.703 5.214-0.703 1.68 0 3.242 0.781 4.688 2.343 1.484 1.602 2.227 3.633 2.226 6.094 0 2.461-0.898 4.766-2.695 6.914-1.797 2.109-4.219 4.004-7.265 5.684-3.008 1.719-6.367 3.242-10.078 4.57-3.711 1.367-7.598 2.5-11.661 3.398v0c-8.516 2.227-16.582 3.34-24.199 3.34v0c-27.617 0-48.73-9.316-63.339-27.949v0c-13.672-16.836-20.508-38.73-20.507-65.683z" fill="#ffffff" fill-rule="nonzero" stroke="none" stroke-width="1" stroke-linecap="butt" stroke-linejoin="miter" stroke-miterlimit="10" stroke-dasharray="" stroke-dashoffset="0" font-family="none" font-weight="none" font-size="none" text-anchor="none" style="mix-blend-mode: normal" data-fill-palette-color="tertiary"></path></g></g><g transform="matrix(1,0,0,1,127.64741968911918,37.08)"><svg viewBox="0 0 140.22516062176163 173.04" height="173.04" width="140.22516062176163"><g><svg viewBox="0 0 140.22516062176163 173.04" height="173.04" width="140.22516062176163"><g><svg viewBox="0 0 140.22516062176163 173.04" height="173.04" width="140.22516062176163"><g><svg viewBox="0 0 140.22516062176163 173.04" height="173.04" width="140.22516062176163"><g id="textblocktransform"><svg viewBox="0 0 140.22516062176163 173.04" height="173.04" width="140.22516062176163" id="textblock"><g><svg viewBox="0 0 140.22516062176163 173.04" height="173.04" width="140.22516062176163"><g transform="matrix(1,0,0,1,0,0)"><svg width="140.22516062176163" viewBox="-1.05 -25.24 23.48 28.731011235955055" height="173.04" data-palette-color="#ffffff"><path d="M1.95-10.92L1.95-10.92Q1.95-15.69 4.66-18.85L4.66-18.85Q7.59-22.24 12.3-22.24L12.3-22.24Q16.32-22.24 18.45-20.57L18.45-20.57Q19.08-20.11 19.08-19.48 19.08-18.85 18.74-18.48 18.39-18.1 17.93-18.1 17.47-18.1 17.24-18.28L17.24-18.28Q15.06-19.54 12.64-19.48L12.64-19.48Q9.48-19.48 7.7-17.13L7.7-17.13Q5.69-14.71 5.69-10.92L5.69-10.92Q5.69-7.41 7.13-5L7.13-5Q8.85-2.24 12.64-2.24L12.64-2.24Q14.71-2.24 17.7-3.68L17.7-3.68Q18.51-4.14 19.08-3.45L19.08-3.45Q19.43-3.1 19.43-2.5 19.43-1.9 18.68-1.29 17.93-0.69 16.9-0.34L16.9-0.34Q14.37 0.52 12.01 0.49 9.66 0.46 7.76-0.4 5.86-1.26 4.6-2.93L4.6-2.93Q1.95-6.09 1.95-10.92Z" opacity="1" transform="matrix(1,0,0,1,0,0)" fill="#ffffff" class="wordmark-text-0" data-fill-palette-color="primary" id="text-0"></path></svg></g></svg></g></svg></g></svg></g></svg></g></svg></g></svg></g></svg></g><defs></defs></svg><rect width="395.52" height="247.2" fill="none" stroke="none" visibility="hidden"></rect></g></svg></g></svg>